<svg width="27" height="26" viewBox="0 0 27 26" fill="none" xmlns="http://www.w3.org/2000/svg">
<path fill-rule="evenodd" clip-rule="evenodd" d="M15.1789 1.54949C15.1789 0.721066 14.5073 0.0494929 13.6789 0.0494933C12.8504 0.0494935 12.1789 0.721066 12.1789 1.54949L12.1789 11.5099L2.21852 11.5099C1.39009 11.5099 0.718518 12.1815 0.718518 13.0099C0.718518 13.8383 1.39009 14.5099 2.21852 14.5099L12.1789 14.5099L12.1789 24.4702C12.1789 25.2986 12.8504 25.9702 13.6789 25.9702C14.5073 25.9702 15.1789 25.2986 15.1789 24.4702L15.1789 14.5099H25.1392C25.9676 14.5099 26.6392 13.8383 26.6392 13.0099C26.6392 12.1815 25.9676 11.5099 25.1392 11.5099H15.1789L15.1789 1.54949Z" fill="white" fill-opacity="0.8"/>
</svg>
