<svg width="54" height="55" viewBox="0 0 54 55" fill="none" xmlns="http://www.w3.org/2000/svg">
<path fill-rule="evenodd" clip-rule="evenodd" d="M26.6897 0.960938C24.718 0.960938 23.1196 2.5593 23.1196 4.53099V23.9521H3.69853C1.72685 23.9521 0.128479 25.5505 0.128479 27.5222C0.128479 29.4939 1.72684 31.0923 3.69853 31.0923H23.1196V50.5133C23.1196 52.485 24.718 54.0834 26.6897 54.0834C28.6614 54.0834 30.2597 52.485 30.2597 50.5133V31.0923H49.6809C51.6525 31.0923 53.2509 29.4939 53.2509 27.5222C53.2509 25.5505 51.6525 23.9521 49.6809 23.9521H30.2597V4.53099C30.2597 2.55931 28.6614 0.960938 26.6897 0.960938Z" fill="#29294B"/>
</svg>
