<svg width="264" height="61" viewBox="0 0 264 61" fill="none" xmlns="http://www.w3.org/2000/svg">
<path d="M138.805 47.3844V46.7635L155.31 13.4434H159.656L176.161 46.7635V47.3844H172.125L167.572 38.0196H147.394L142.841 47.3844H138.805ZM149.153 34.4496H165.813L157.483 17.4274L149.153 34.4496ZM198.381 47.9535C186.481 47.9535 179.031 41.3826 179.031 30.9313V29.9483C179.031 19.4969 186.481 12.8743 198.381 12.8743C208.936 12.8743 216.852 18.7208 216.852 26.4817V26.9991H212.868V26.4817C212.868 20.7904 206.711 16.5478 198.381 16.5478C188.654 16.5478 183.015 21.5148 183.015 29.8965V30.983C183.015 39.4165 188.602 44.28 198.381 44.28C206.815 44.28 212.868 40.0892 212.868 34.3978V33.8287H216.852V34.3978C216.852 42.1587 208.936 47.9535 198.381 47.9535Z" fill="white"/>
<path d="M130.629 48.0053C128.352 48.0053 126.8 46.4531 126.8 44.28C126.8 42.107 128.352 40.5548 130.629 40.5548C132.905 40.5548 134.457 42.107 134.457 44.28C134.457 46.4531 132.905 48.0053 130.629 48.0053Z" fill="url(#paint0_linear_80_67)"/>
<path d="M105.778 47.3844V13.4434H135.528V19.2382H112.245V28.0856H134.493V33.8804H112.245V47.3844H105.778Z" fill="white"/>
<path d="M88.4451 6.04333V52.9321" stroke="white" stroke-width="1.61685"/>
<path d="M222.523 37.4821L218.16 47.2731H248.479L251.325 40.8057H229.077L230.557 37.4821H222.523Z" fill="url(#paint1_linear_80_67)"/>
<path d="M256.447 27.0431L252.579 37.2664H245.082L246.578 33.4598H224.309L233.268 13.3322H263.587L260.69 19.7996H238.442L235.182 27.0431H256.447Z" fill="url(#paint2_linear_80_67)"/>
<path d="M30.9402 43.9956C25.8925 36.2245 20.113 9.27251 33.6588 7.00684C13.8119 -2.89142 13.2643 23.6848 30.9402 43.9956Z" fill="white"/>
<path d="M13.5809 24.3267L0.766815 52.8987H31.9761C29.7225 51.1527 28.4584 50.1714 25.6385 46.789H10.2583L16.5779 32.6779C15.1923 29.8328 14.5295 28.0212 13.5809 24.3267Z" fill="white"/>
<path d="M43.1991 14.8496C48.2468 22.6208 54.0263 49.5727 40.4805 51.8384C60.3275 61.7366 60.875 35.1604 43.1991 14.8496Z" fill="white"/>
<path d="M60.5584 34.5186L73.3725 5.94656L42.1632 5.94656C44.4169 7.69253 45.6809 8.67383 48.5008 12.0562L63.881 12.0562L57.5614 26.1674C58.9471 29.0125 59.6098 30.8241 60.5584 34.5186Z" fill="white"/>
<defs>
<linearGradient id="paint0_linear_80_67" x1="126.199" y1="25.1835" x2="108.885" y2="36.8225" gradientUnits="userSpaceOnUse">
<stop stop-color="#272789"/>
<stop offset="1" stop-color="#1919EF"/>
</linearGradient>
<linearGradient id="paint1_linear_80_67" x1="215.736" y1="7.29154" x2="201.442" y2="50.6261" gradientUnits="userSpaceOnUse">
<stop stop-color="#0D0DCC"/>
<stop offset="1" stop-color="#5353FF"/>
</linearGradient>
<linearGradient id="paint2_linear_80_67" x1="215.736" y1="7.29154" x2="201.442" y2="50.6261" gradientUnits="userSpaceOnUse">
<stop stop-color="#0D0DCC"/>
<stop offset="1" stop-color="#5353FF"/>
</linearGradient>
</defs>
</svg>
