<svg width="15" height="18" viewBox="0 0 15 18" fill="none" xmlns="http://www.w3.org/2000/svg">
<path fill-rule="evenodd" clip-rule="evenodd" d="M11.9986 9.43397C10.5139 11.5487 7.5959 12.0594 5.48115 10.5747C3.3664 9.08996 2.85567 6.17199 4.34042 4.05724C5.82516 1.9425 8.74312 1.43177 10.8579 2.91651C12.9726 4.40125 13.4833 7.31922 11.9986 9.43397ZM5.66765 12.9395C8.48413 14.08 11.8147 13.1765 13.6355 10.5832C15.7549 7.56442 15.0258 3.39909 12.0071 1.27966C8.98833 -0.83978 4.823 -0.110733 2.70356 2.90803C0.882818 5.50135 1.16425 8.94084 3.19361 11.2025C3.17269 11.2285 3.15248 11.2553 3.13303 11.283L0.493054 15.0432C0.0123498 15.7279 0.177702 16.6726 0.86238 17.1533C1.54706 17.634 2.49178 17.4687 2.97249 16.784L5.61247 13.0238C5.63192 12.9961 5.65031 12.968 5.66765 12.9395Z" fill="white" fill-opacity="0.8"/>
</svg>
